<?xml version="1.0" standalone="no"?>
<!DOCTYPE svg PUBLIC "-//W3C//DTD SVG 20010904//EN" "http://www.w3.org/TR/2001/REC-SVG-20010904/DTD/svg10.dtd">
<svg version="1.0" xmlns="http://www.w3.org/2000/svg" width="663.000000pt" height="366.000000pt"
  viewBox="0 0 663.000000 366.000000" preserveAspectRatio="xMidYMid meet">

  <g transform="translate(0.000000,366.000000) scale(0.100000,-0.100000)" fill="#231F20" stroke="none">
    <path d="M0 1830 l0 -1830 3315 0 3315 0 0 1830 0 1830 -3315 0 -3315 0 0
-1830z m1743 1127 c49 -21 1058 -1048 1076 -1095 9 -25 11 -51 7 -77 -7 -36
-61 -93 -524 -560 -284 -286 -530 -528 -547 -538 -22 -13 -44 -17 -82 -14 -63
4 -3 -51 -630 578 -431 433 -492 499 -498 531 -17 90 -21 84 358 468 193 195
355 357 360 359 5 2 67 -54 137 -124 124 -124 128 -128 119 -159 -18 -63 16
-150 72 -183 l29 -17 0 -313 0 -313 -44 -43 c-79 -76 -82 -181 -8 -253 106
-103 277 -39 290 109 5 62 -21 126 -63 153 l-25 16 0 310 c0 170 3 308 8 306
4 -1 55 -53 114 -113 l108 -111 -6 -49 c-13 -120 103 -220 217 -186 124 37
168 187 83 281 -40 44 -88 64 -145 58 -38 -3 -41 -1 -166 124 l-127 127 2 48
c6 106 -76 188 -181 181 l-47 -3 -132 132 -133 133 110 110 c60 60 123 116
140 125 38 18 86 19 128 2z m3164 2 c70 -26 106 -87 106 -180 0 -119 -59 -186
-172 -196 -135 -13 -220 64 -221 197 0 121 71 190 196 190 35 0 75 -5 91 -11z
m733 -364 l0 -165 160 0 160 0 0 -110 0 -110 -160 0 -160 0 0 -307 c0 -330 2
-339 52 -376 21 -16 41 -20 100 -19 40 1 95 8 121 16 36 11 49 11 53 3 5 -15
54 -180 54 -183 0 -1 -35 -16 -77 -32 -107 -41 -182 -55 -290 -54 -217 1 -318
81 -343 272 -5 41 -10 211 -10 378 l0 302 -85 0 -86 0 3 97 3 97 50 11 c136
31 209 117 230 270 10 79 4 75 120 75 l105 0 0 -165z m-1472 -201 l262 -6 0
-94 c0 -107 8 -99 -113 -107 -37 -3 -70 -7 -73 -9 -2 -3 11 -31 29 -64 30 -55
32 -65 32 -159 0 -88 -3 -107 -27 -157 -72 -155 -245 -237 -473 -225 -55 3
-107 8 -115 11 -17 7 -87 -92 -73 -104 4 -4 95 -12 200 -19 308 -18 423 -40
504 -96 74 -52 111 -174 89 -295 -22 -122 -84 -199 -205 -256 -128 -61 -176
-69 -410 -69 -188 0 -219 3 -290 23 -153 43 -225 112 -233 222 -5 75 10 122
64 192 l44 57 -29 20 c-30 22 -61 85 -61 124 1 47 43 113 119 187 l79 77 -47
34 c-49 37 -105 119 -123 184 -18 65 -13 201 11 269 64 182 248 282 496 270
44 -2 198 -6 343 -10z m844 -461 l3 -478 65 -11 c36 -7 68 -12 73 -13 4 -1 7
-39 7 -86 l0 -85 -315 0 -315 0 0 85 c0 47 3 85 8 86 4 1 36 6 72 13 l65 11 0
360 0 359 -70 27 c-38 15 -69 30 -69 33 1 4 5 37 8 74 12 113 -14 102 242 102
l224 0 2 -477z" />
    <path d="M3750 2179 c-87 -27 -130 -90 -130 -191 0 -122 63 -181 194 -182 89
0 146 28 183 92 22 37 25 52 21 111 -6 111 -61 167 -175 176 -32 2 -74 0 -93
-6z" />
    <path d="M3555 1137 c-50 -86 -24 -142 80 -173 84 -24 311 -17 375 12 55 25
69 42 77 87 4 27 1 39 -17 55 -27 25 -48 29 -235 42 -82 5 -173 12 -202 15
l-52 5 -26 -43z" />
  </g>
</svg>