<svg xmlns="http://www.w3.org/2000/svg" width="884" height="488" version="1.0" viewBox="0 0 663 366"><g fill="#231F20"><path d="M0 183v183h663V0H0zM174.3 70.3c4.9 2.1 105.8 104.8 107.6 109.5.9 2.5 1.1 5.1.7 7.7-.7 3.6-6.1 9.3-52.4 56-28.4 28.6-53 52.8-54.7 53.8-2.2 1.3-4.4 1.7-8.2 1.4-6.3-.4-.3 5.1-63-57.8-43.1-43.3-49.2-49.9-49.8-53.1-1.7-9-2.1-8.4 35.8-46.8 19.3-19.5 35.5-35.7 36-35.9s6.7 5.4 13.7 12.4c12.4 12.4 12.8 12.8 11.9 15.9-1.8 6.3 1.6 15 7.2 18.3l2.9 1.7V216l-4.4 4.3c-7.9 7.6-8.2 18.1-.8 25.3 10.6 10.3 27.7 3.9 29-10.9.5-6.2-2.1-12.6-6.3-15.3l-2.5-1.6v-31c0-17 .3-30.8.8-30.6.4.1 5.5 5.3 11.4 11.3l10.8 11.1-.6 4.9c-1.3 12 10.3 22 21.7 18.6 12.4-3.7 16.8-18.7 8.3-28.1-4-4.4-8.8-6.4-14.5-5.8-3.8.3-4.1.1-16.6-12.4l-12.7-12.7.2-4.8c.6-10.6-7.6-18.8-18.1-18.1l-4.7.3-13.2-13.2L136.5 94l11-11c6-6 12.3-11.6 14-12.5 3.8-1.8 8.6-1.9 12.8-.2m316.4-.2c7 2.6 10.6 8.7 10.6 18 0 11.9-5.9 18.6-17.2 19.6-13.5 1.3-22-6.4-22.1-19.7 0-12.1 7.1-19 19.6-19 3.5 0 7.5.5 9.1 1.1m73.3 36.4V123h32v22h-32v30.7c0 33 .2 33.9 5.2 37.6 2.1 1.6 4.1 2 10 1.9 4-.1 9.5-.8 12.1-1.6 3.6-1.1 4.9-1.1 5.3-.3.5 1.5 5.4 18 5.4 18.3 0 .1-3.5 1.6-7.7 3.2-10.7 4.1-18.2 5.5-29 5.4-21.7-.1-31.8-8.1-34.3-27.2-.5-4.1-1-21.1-1-37.8V145h-17.1l.3-9.7.3-9.7 5-1.1c13.6-3.1 20.9-11.7 23-27 1-7.9.4-7.5 12-7.5H564zm-147.2 20.1 26.2.6v9.4c0 10.7.8 9.9-11.3 10.7-3.7.3-7 .7-7.3.9-.2.3 1.1 3.1 2.9 6.4 3 5.5 3.2 6.5 3.2 15.9 0 8.8-.3 10.7-2.7 15.7-7.2 15.5-24.5 23.7-47.3 22.5-5.5-.3-10.7-.8-11.5-1.1-1.7-.7-8.7 9.2-7.3 10.4.4.4 9.5 1.2 20 1.9 30.8 1.8 42.3 4 50.4 9.6 7.4 5.2 11.1 17.4 8.9 29.5-2.2 12.2-8.4 19.9-20.5 25.6-12.8 6.1-17.6 6.9-41 6.9-18.8 0-21.9-.3-29-2.3-15.3-4.3-22.5-11.2-23.3-22.2-.5-7.5 1-12.2 6.4-19.2l4.4-5.7-2.9-2c-3-2.2-6.1-8.5-6.1-12.4.1-4.7 4.3-11.3 11.9-18.7l7.9-7.7-4.7-3.4c-4.9-3.7-10.5-11.9-12.3-18.4s-1.3-20.1 1.1-26.9c6.4-18.2 24.8-28.2 49.6-27 4.4.2 19.8.6 34.3 1m84.4 46.1.3 47.8 6.5 1.1c3.6.7 6.8 1.2 7.3 1.3.4.1.7 3.9.7 8.6v8.5h-63v-8.5c0-4.7.3-8.5.8-8.6.4-.1 3.6-.6 7.2-1.3l6.5-1.1v-71.9l-7-2.7c-3.8-1.5-6.9-3-6.9-3.3.1-.4.5-3.7.8-7.4 1.2-11.3-1.4-10.2 24.2-10.2H501z"/><path d="M375 148.1c-8.7 2.7-13 9-13 19.1 0 12.2 6.3 18.1 19.4 18.2 8.9 0 14.6-2.8 18.3-9.2 2.2-3.7 2.5-5.2 2.1-11.1-.6-11.1-6.1-16.7-17.5-17.6-3.2-.2-7.4 0-9.3.6M355.5 252.3c-5 8.6-2.4 14.2 8 17.3 8.4 2.4 31.1 1.7 37.5-1.2 5.5-2.5 6.9-4.2 7.7-8.7.4-2.7.1-3.9-1.7-5.5-2.7-2.5-4.8-2.9-23.5-4.2-8.2-.5-17.3-1.2-20.2-1.5l-5.2-.5z"/></g></svg>