<?xml version="1.0" standalone="no"?>
<!DOCTYPE svg PUBLIC "-//W3C//DTD SVG 20010904//EN" "http://www.w3.org/TR/2001/REC-SVG-20010904/DTD/svg10.dtd">
<svg version="1.0" xmlns="http://www.w3.org/2000/svg" width="640.000000pt" height="249.000000pt"
  viewBox="0 0 640.000000 249.000000" preserveAspectRatio="xMidYMid meet">

  <g transform="translate(0.000000,249.000000) scale(0.100000,-0.100000)" fill="#ffffff" stroke="none">
    <path d="M0 1425 l0 -1065 890 0 890 0 0 -180 0 -180 710 0 710 0 0 180 0 180
1600 0 1600 0 0 1065 0 1065 -3200 0 -3200 0 0 -1065z m1780 0 l0 -715 -180 0
-180 0 -2 533 -3 532 -170 0 -170 0 -3 -532 -2 -533 -360 0 -360 0 0 715 0
715 715 0 715 0 0 -715z m1780 0 l0 -715 -355 0 -355 0 0 -180 0 -180 -360 0
-360 0 0 895 0 895 715 0 715 0 0 -715z m2490 0 l0 -715 -182 0 -183 0 0 532
0 533 -170 0 -170 0 -3 -532 -2 -533 -185 0 -185 0 0 535 0 535 -170 0 -170 0
0 -535 0 -535 -360 0 -360 0 0 715 0 715 1070 0 1070 0 0 -715z" />
    <path d="M2857 1773 c-4 -3 -7 -163 -7 -355 l0 -348 175 0 175 0 0 355 0 355
-168 0 c-93 0 -172 -3 -175 -7z" />
  </g>
</svg>